<?xml version="1.0" standalone="no"?><!DOCTYPE svg PUBLIC "-//W3C//DTD SVG 1.1//EN" "http://www.w3.org/Graphics/SVG/1.1/DTD/svg11.dtd"><svg t="1569812366811" class="icon" viewBox="0 0 1024 1024" version="1.1" xmlns="http://www.w3.org/2000/svg" p-id="2460" xmlns:xlink="http://www.w3.org/1999/xlink" width="200" height="200"><defs><style type="text/css"></style></defs><path d="M798.6364 308.9632c-7.5455-1.8152-14.8695 0.8296-19.9917 5.8321l-0.6714-0.2871-33.7965 27.8944c-54.1273-74.648-142.058-123.3547-241.5578-123.3547-164.5973 0-298.0224 132.9053-298.0224 296.8515 0 163.9824 133.4206 296.8967 298.0224 296.8967 122.7851 0 227.762-74.1982 273.3899-179.8849 6.4718-6.3791 10.4864-15.2583 10.4864-25.0733 0-19.5374-15.8844-35.3472-35.4715-35.3472-14.3609 0-26.6602 8.522-32.2323 20.7422l-2.4368-1.1031c-31.414 87.4085-115.0022 150.0352-213.4848 150.0352-125.3326 0-226.9437-101.2946-226.9437-226.2656 0-124.9325 101.6111-226.2294 226.9437-226.2294 77.3335 0 145.5233 38.6317 186.5172 97.4744l3.4043-2.2514-48.1596 39.7936 0.4905 0.8296c-3.9332 2.9002-7.0911 6.9306-8.3276 12.0077-2.7374 11.5285 4.5029 23.0954 16.1331 25.8848 8.8701 2.0977 16.5513 2.5024 16.5513 2.5024l111.5731 17.1842 1.232-0.9449c1.0579 0.5425 2.0118 1.1958 3.2076 1.4829 8.1061 1.9259 16.2212-3.0019 18.1314-11.0199 1.0737-4.4938 0.4905-7.3556 0.4905-7.3556l10.7848-134.361C815.3504 320.7765 808.9532 311.3864 798.6364 308.9632z" p-id="2461" fill="#ffffff"></path></svg>